<svg width="36" height="36" viewBox="0 0 36 36" fill="none" xmlns="http://www.w3.org/2000/svg">
<g clip-path="url(#clip0_505_58)">
<path d="M35.9996 18.1103C35.9996 8.10676 27.9401 -0.00224304 17.9996 -0.00224304C8.05462 6.95791e-06 -0.00488281 8.10676 -0.00488281 18.1125C-0.00488281 27.1508 6.57862 34.6433 15.1826 36.0023V23.346H10.6151V18.1125H15.1871V14.1188C15.1871 9.58051 17.8759 7.07401 21.9866 7.07401C23.9576 7.07401 26.0164 7.42726 26.0164 7.42726V11.8823H23.7461C21.5119 11.8823 20.8144 13.2795 20.8144 14.7128V18.1103H25.8049L25.0084 23.3438H20.8121V36C29.4161 34.641 35.9996 27.1485 35.9996 18.1103Z" fill="white"/>
</g>
<defs>
<clipPath id="clip0_505_58">
<rect width="36" height="36" fill="white"/>
</clipPath>
</defs>
</svg>
