<svg width="69" height="69" viewBox="0 0 69 69" fill="none" xmlns="http://www.w3.org/2000/svg">
<mask id="mask0_656_20" style="mask-type:alpha" maskUnits="userSpaceOnUse" x="0" y="0" width="69" height="69">
<rect x="0.5" y="0.5" width="68" height="68" fill="#D9D9D9" stroke="white"/>
</mask>
<g mask="url(#mask0_656_20)">
<path d="M26.8125 47.4375V48.3533L27.5829 47.8581L47.7079 34.9206L48.3621 34.5L47.7079 34.0794L27.5829 21.1419L26.8125 20.6467V21.5625V47.4375ZM23.4857 60.5255L23.4855 60.5254C20.0432 59.041 17.0539 57.028 14.5129 54.4871C11.972 51.9461 9.95905 48.9568 8.47463 45.5145L8.47454 45.5143C6.99241 42.0817 6.25 38.412 6.25 34.5C6.25 30.588 6.99241 26.9183 8.47454 23.4857L8.47463 23.4855C9.95905 20.0432 11.972 17.0539 14.5129 14.5129C17.0539 11.972 20.0432 9.95809 23.4855 8.47175C26.9181 6.99149 30.5879 6.25 34.5 6.25C38.412 6.25 42.0817 6.99146 45.5143 8.47166C48.9567 9.95801 51.9461 11.9719 54.4871 14.5129C57.028 17.0539 59.041 20.0432 60.5254 23.4855L60.5255 23.4857C62.0076 26.9183 62.75 30.588 62.75 34.5C62.75 38.412 62.0076 42.0817 60.5255 45.5143L60.5254 45.5145C59.041 48.9568 57.028 51.9461 54.4871 54.4871C51.9461 57.028 48.9568 59.041 45.5145 60.5254L45.5143 60.5255C42.0817 62.0076 38.412 62.75 34.5 62.75C30.588 62.75 26.9183 62.0076 23.4857 60.5255Z" stroke="white"/>
</g>
</svg>
