<svg width="1512" height="400" viewBox="0 0 1512 400" fill="none" xmlns="http://www.w3.org/2000/svg">
<path d="M-42 2H1561V398H-42V2Z" fill="#929292" stroke="black" stroke-width="4"/>
<g clip-path="url(#clip0_449_21)">
<path d="M747 243.75C735.397 243.75 724.269 239.141 716.064 230.936C707.859 222.731 703.25 211.603 703.25 200C703.25 188.397 707.859 177.269 716.064 169.064C724.269 160.859 735.397 156.25 747 156.25C758.603 156.25 769.731 160.859 777.936 169.064C786.141 177.269 790.75 188.397 790.75 200C790.75 211.603 786.141 222.731 777.936 230.936C769.731 239.141 758.603 243.75 747 243.75ZM747 250C760.261 250 772.979 244.732 782.355 235.355C791.732 225.979 797 213.261 797 200C797 186.739 791.732 174.021 782.355 164.645C772.979 155.268 760.261 150 747 150C733.739 150 721.021 155.268 711.645 164.645C702.268 174.021 697 186.739 697 200C697 213.261 702.268 225.979 711.645 235.355C721.021 244.732 733.739 250 747 250Z" fill="black"/>
<path d="M736.194 181.594C736.705 181.331 737.279 181.213 737.852 181.255C738.426 181.297 738.976 181.497 739.444 181.831L761.319 197.456C761.724 197.745 762.054 198.127 762.282 198.569C762.51 199.012 762.629 199.502 762.629 200C762.629 200.498 762.51 200.988 762.282 201.431C762.054 201.873 761.724 202.255 761.319 202.544L739.444 218.169C738.976 218.503 738.426 218.702 737.853 218.744C737.28 218.786 736.706 218.669 736.195 218.406C735.684 218.143 735.256 217.745 734.957 217.254C734.658 216.763 734.5 216.2 734.5 215.625V184.375C734.499 183.801 734.657 183.237 734.956 182.746C735.255 182.256 735.683 181.857 736.194 181.594Z" fill="black"/>
</g>
<defs>
<clipPath id="clip0_449_21">
<rect width="100" height="100" fill="white" transform="translate(697 150)"/>
</clipPath>
</defs>
</svg>
