<svg width="46" height="46" viewBox="0 0 46 46" fill="none" xmlns="http://www.w3.org/2000/svg">
<g clip-path="url(#clip0_145_107)">
<path d="M45.2934 22.0805L32.1558 18.4342C37.0704 10.7064 37.9411 9.4586 38.0472 9.31365C38.3954 8.96546 38.4246 8.41403 38.1148 8.03709C37.8054 7.65975 37.2636 7.5727 36.8477 7.83384L27.5511 13.811L23.9235 0.706099C23.8072 0.290291 23.4302 0 23.0046 0C22.579 0 22.1918 0.290291 22.0857 0.706099L18.4484 13.802L9.14206 7.82489C8.76464 7.58318 8.26168 7.63137 7.94254 7.9508C7.62343 8.26984 7.56512 8.76337 7.81661 9.15006L13.795 18.4447L0.70625 22.0813C0.290353 22.1975 0 22.5745 0 23C0 23.4255 0.290353 23.8126 0.70625 23.9187L13.805 27.5553L7.82655 36.8499C7.58479 37.2273 7.63299 37.7301 7.95249 38.0492C8.13634 38.233 8.38782 38.3298 8.62958 38.3298C8.81343 38.3298 8.98757 38.2816 9.14226 38.1751L18.4389 32.198L22.0763 45.2939C22.1925 45.7097 22.5695 46 22.9951 46C23.4207 46 23.8079 45.7097 23.914 45.2939L27.5514 32.198L36.848 38.1751C37.0027 38.2816 37.1866 38.3298 37.3704 38.3298C37.6219 38.3298 37.8637 38.233 38.0475 38.0492C38.3666 37.7302 38.4249 37.2366 38.1734 36.8499L32.195 27.5553L45.2938 23.9187C45.7097 23.8025 46 23.4255 46 23C46 22.5745 45.7097 22.1874 45.2938 22.0813L45.2934 22.0805ZM27.5319 26.8681C27.5125 26.8778 27.493 26.8778 27.4643 26.8875C27.4545 26.8875 27.4545 26.8875 27.4448 26.8972C27.406 26.9069 27.3675 26.9264 27.3383 26.9454C27.3383 26.9454 27.3286 26.9454 27.3286 26.9551C27.2897 26.9746 27.2513 27.0033 27.2221 27.0228C27.1545 27.0807 27.0868 27.139 27.0383 27.2066C27.0285 27.2163 27.0188 27.2357 27.0091 27.2454C26.9897 27.2649 26.98 27.2843 26.9702 27.313C26.9605 27.3325 26.9508 27.3519 26.9411 27.3709C26.9314 27.3904 26.9217 27.4098 26.9119 27.4289C26.9022 27.4483 26.8925 27.4677 26.8925 27.4965C26.8925 27.5062 26.8828 27.5159 26.8828 27.5353L23.013 41.453L19.1432 27.5353C19.1335 27.5159 19.1335 27.4965 19.1237 27.4774C19.1237 27.4677 19.114 27.458 19.114 27.458C19.1043 27.4191 19.0849 27.3904 19.0658 27.3515C19.0658 27.3418 19.0561 27.3418 19.0561 27.3321C18.9885 27.2159 18.9014 27.1098 18.7949 27.0321H18.7852C18.756 27.0029 18.7176 26.9839 18.6787 26.9645C18.669 26.9645 18.6593 26.9548 18.6495 26.9548C18.6204 26.9353 18.5819 26.9256 18.5528 26.9066C18.543 26.9066 18.5333 26.8969 18.5236 26.8969C18.5042 26.8871 18.4847 26.8871 18.4657 26.8774L4.53513 22.9992L18.4557 19.1302C18.4752 19.1205 18.4946 19.1205 18.5039 19.1108C18.5136 19.1108 18.5331 19.1011 18.5428 19.1011C18.572 19.0913 18.6007 19.0816 18.6201 19.0622C18.6396 19.0525 18.6493 19.0525 18.6683 19.0428C18.6878 19.033 18.7072 19.0136 18.7263 19.0039C18.7457 18.9942 18.7651 18.9845 18.7842 18.965L18.7939 18.9553C18.9198 18.8586 19.0162 18.7233 19.0842 18.578C19.1037 18.5391 19.1134 18.5007 19.1231 18.4618L19.1328 18.4326C19.1328 18.4229 19.1425 18.4132 19.1425 18.4035L22.9929 4.54356L26.8627 18.4612C26.8627 18.4806 26.8724 18.4904 26.8821 18.5094C26.8918 18.5288 26.8918 18.5385 26.9015 18.5576C26.9113 18.577 26.921 18.6155 26.9404 18.6349C26.9501 18.6446 26.9501 18.6641 26.9598 18.6738C26.9793 18.7029 26.9987 18.7317 27.0178 18.7608C27.0275 18.7705 27.0275 18.7802 27.0372 18.79C27.0951 18.8576 27.1534 18.9252 27.221 18.9738C27.2308 18.9738 27.2308 18.9835 27.2405 18.9835C27.2696 19.0029 27.2984 19.0224 27.3275 19.0414C27.3373 19.0511 27.347 19.0511 27.3567 19.0608C27.3858 19.0803 27.4146 19.09 27.4438 19.0997C27.4535 19.1094 27.4729 19.1094 27.4826 19.1094C27.5021 19.1191 27.5118 19.1191 27.5308 19.1288L41.4514 22.9978L27.5308 26.8668L27.5319 26.8681Z" fill="#1B3712"/>
</g>
<defs>
<clipPath id="clip0_145_107">
<rect width="46" height="46" fill="white"/>
</clipPath>
</defs>
</svg>
