<svg width="38" height="27" viewBox="0 0 38 27" fill="none" xmlns="http://www.w3.org/2000/svg">
<path d="M19.1211 -0.300049H19.3325C21.2847 -0.292924 31.1766 -0.221673 33.8438 0.495577C34.65 0.714477 35.3848 1.14115 35.9745 1.73297C36.5642 2.32479 36.9883 3.06101 37.2044 3.86808C37.4442 4.77058 37.6129 5.9652 37.7269 7.19783L37.7506 7.44483L37.8029 8.06233L37.8219 8.30933C37.9762 10.4801 37.9953 12.5131 37.9976 12.9572V13.1353C37.9953 13.5961 37.9739 15.7668 37.8029 18.0278L37.7839 18.2772L37.7625 18.5242C37.6437 19.8827 37.468 21.2317 37.2044 22.2245C36.989 23.0318 36.5651 23.7684 35.9753 24.3603C35.3854 24.9522 34.6504 25.3787 33.8438 25.597C31.0888 26.338 20.6174 26.3902 19.1662 26.3926H18.829C18.0951 26.3926 15.0599 26.3783 11.8774 26.2691L11.4736 26.2548L11.267 26.2453L10.8609 26.2287L10.4548 26.2121C7.8185 26.0957 5.30813 25.9081 4.1515 25.5946C3.34516 25.3765 2.61028 24.9504 2.02047 24.359C1.43066 23.7675 1.00664 23.0314 0.790875 22.2245C0.52725 21.2341 0.3515 19.8827 0.23275 18.5242L0.21375 18.2748L0.19475 18.0278C0.077538 16.4185 0.0125872 14.8058 0 13.1923L0 12.9002C0.00475 12.3896 0.02375 10.625 0.152 8.67745L0.168625 8.43283L0.17575 8.30933L0.19475 8.06233L0.247 7.44483L0.27075 7.19783C0.38475 5.9652 0.553375 4.7682 0.79325 3.86808C1.00865 3.06069 1.43251 2.32411 2.02234 1.7322C2.61218 1.14028 3.34725 0.713821 4.15387 0.495577C5.3105 0.186827 7.82087 -0.00317401 10.4571 -0.121924L10.8609 -0.138549L11.2694 -0.152798L11.4736 -0.159924L11.8797 -0.176548C14.1401 -0.249284 16.4013 -0.289663 18.6628 -0.297674H19.1211V-0.300049ZM15.2 7.3237V18.7665L25.0729 13.0475L15.2 7.3237Z" fill="#FFEDE8"/>
</svg>
