<svg width="36" height="36" viewBox="0 0 36 36" fill="none" xmlns="http://www.w3.org/2000/svg">
<path d="M18.1147 5.39999H18.315C20.1645 5.40674 29.5357 5.47424 32.0625 6.15374C32.8264 6.36112 33.5224 6.76534 34.0811 7.32601C34.6398 7.88668 35.0416 8.58416 35.2463 9.34874C35.4735 10.2037 35.6333 11.3355 35.7412 12.5032L35.7638 12.7372L35.8132 13.3222L35.8312 13.5562C35.9775 15.6127 35.9955 17.5387 35.9977 17.9595V18.1282C35.9955 18.5647 35.9753 20.6212 35.8132 22.7632L35.7952 22.9995L35.775 23.2335C35.6625 24.5205 35.496 25.7985 35.2463 26.739C35.0422 27.5039 34.6406 28.2017 34.0818 28.7625C33.5231 29.3232 32.8267 29.7272 32.0625 29.934C29.4525 30.636 19.5322 30.6855 18.1575 30.6877H17.838C17.1427 30.6877 14.2673 30.6742 11.2522 30.5707L10.8698 30.5572L10.674 30.5482L10.2892 30.5325L9.9045 30.5167C7.407 30.4065 5.02875 30.2287 3.933 29.9317C3.1691 29.7252 2.4729 29.3215 1.91413 28.7612C1.35536 28.2008 0.953655 27.5035 0.74925 26.739C0.4995 25.8007 0.333 24.5205 0.2205 23.2335L0.2025 22.9972L0.1845 22.7632C0.0734571 21.2386 0.0119247 19.7108 0 18.1822L0 17.9055C0.0045 17.4217 0.0225 15.75 0.144 13.905L0.15975 13.6732L0.1665 13.5562L0.1845 13.3222L0.234 12.7372L0.2565 12.5032C0.3645 11.3355 0.52425 10.2015 0.7515 9.34874C0.955561 8.58385 1.35712 7.88604 1.9159 7.32528C2.47469 6.76452 3.17108 6.3605 3.93525 6.15374C5.031 5.86124 7.40925 5.68124 9.90675 5.56874L10.2892 5.55299L10.6762 5.53949L10.8698 5.53274L11.2545 5.51699C13.3958 5.44809 15.5381 5.40983 17.6805 5.40224H18.1147V5.39999ZM14.4 12.6225V23.463L23.7533 18.045L14.4 12.6225Z" fill="white"/>
</svg>
